<svg width="14" height="10" viewBox="0 0 14 10" fill="none" xmlns="http://www.w3.org/2000/svg">
<rect width="14" height="10" fill="#1E1E1E"/>
<path d="M13.1542 2.22219C13.0106 2.21664 12.8681 2.25334 12.7392 2.32905C12.6104 2.40475 12.4993 2.51713 12.4157 2.6562C12.4086 2.66831 12.3984 2.6774 12.3867 2.68217C12.3749 2.68694 12.3622 2.68714 12.3504 2.68272C12.3386 2.67831 12.3282 2.66952 12.3209 2.65764C12.3135 2.64575 12.3095 2.63138 12.3095 2.61662V1.34411C12.3095 0.623657 11.8329 0.0174342 11.228 0.00042113C11.0801 -0.00402709 10.933 0.0268014 10.7953 0.0910904C10.6576 0.155379 10.5321 0.251828 10.4262 0.374753C10.3203 0.497678 10.2362 0.644593 10.1787 0.806839C10.1213 0.969086 10.0917 1.14338 10.0917 1.31946V4.16655C10.0917 4.18497 10.0855 4.20263 10.0746 4.21565C10.0636 4.22867 10.0488 4.23599 10.0333 4.23599H3.96667C3.9512 4.23599 3.93636 4.22867 3.92542 4.21565C3.91448 4.20263 3.90833 4.18497 3.90833 4.16655V1.34411C3.90833 0.623657 3.43175 0.0174342 2.82683 0.00042113C2.67907 -0.00383885 2.53208 0.0271291 2.39452 0.0915026C2.25695 0.155876 2.1316 0.252355 2.02582 0.375261C1.92005 0.498167 1.836 0.645017 1.77861 0.80717C1.72122 0.969323 1.69166 1.1435 1.69167 1.31946V2.61731C1.69164 2.63208 1.68766 2.64645 1.6803 2.65833C1.67295 2.67022 1.6626 2.67901 1.65077 2.68342C1.63893 2.68783 1.62623 2.68764 1.61449 2.68287C1.60275 2.6781 1.5926 2.669 1.5855 2.6569C1.50185 2.51749 1.39055 2.40486 1.2615 2.32902C1.13246 2.25318 0.989668 2.21649 0.845833 2.22219C0.370417 2.2399 0 2.71905 0 3.28534V6.71296C0 7.27925 0.371583 7.7584 0.845833 7.7761C0.989421 7.78166 1.13194 7.74496 1.26076 7.66925C1.38958 7.59354 1.50073 7.48117 1.58433 7.3421C1.59126 7.32929 1.60153 7.31956 1.61356 7.31438C1.62559 7.30921 1.63871 7.30889 1.65091 7.31346C1.66311 7.31804 1.67371 7.32727 1.68107 7.33972C1.68844 7.35217 1.69216 7.36716 1.69167 7.38237V8.65558C1.69167 9.37464 2.16825 9.98225 2.77317 9.99961C2.92096 10.0039 3.06797 9.9729 3.20555 9.9085C3.34313 9.84411 3.4685 9.7476 3.57428 9.62465C3.68006 9.50171 3.76411 9.35482 3.82148 9.19262C3.87884 9.03043 3.90838 8.85621 3.90833 8.68023V5.83314C3.90833 5.81472 3.91448 5.79706 3.92542 5.78404C3.93636 5.77101 3.9512 5.7637 3.96667 5.7637H10.0333C10.0488 5.7637 10.0636 5.77101 10.0746 5.78404C10.0855 5.79706 10.0917 5.81472 10.0917 5.83314V8.65558C10.0917 9.37603 10.5682 9.98225 11.1732 9.99927C11.3209 10.0035 11.4679 9.97256 11.6055 9.90818C11.743 9.84381 11.8684 9.74733 11.9742 9.62443C12.08 9.50152 12.164 9.35467 12.2214 9.19252C12.2788 9.03036 12.3083 8.85618 12.3083 8.68023V7.38237C12.3084 7.36761 12.3123 7.35324 12.3197 7.34136C12.3271 7.32947 12.3374 7.32068 12.3492 7.31627C12.3611 7.31186 12.3738 7.31205 12.3855 7.31682C12.3972 7.32159 12.4074 7.33069 12.4145 7.34279C12.4982 7.48219 12.6095 7.59482 12.7385 7.67066C12.8675 7.7465 13.0103 7.7832 13.1542 7.77749C13.6296 7.75979 14 7.28064 14 6.71435V3.28603C14 2.71974 13.6284 2.2406 13.1542 2.22219Z" fill="#61FF5E"/>
</svg>
